<svg xmlns="http://www.w3.org/2000/svg" width="976" height="1074" viewBox="0 0 500 500">
  <g style="" transform="matrix(0.830356, 0, 0, 0.830356, 66.536697, 1.632685)">
    <path d="M 358.496 340.731 C 357.66 342.788 356.582 344.864 356.102 345.35 C 355.111 346.341 354.936 345.861 354.194 340.189 C 353.652 336.025 353.465 335.676 351.04 334.242 C 348.927 332.995 348.914 332.964 348.914 328.37 C 348.914 320.646 350.76 318.078 357.037 317.081 C 359.25 316.731 361.961 314.581 364.062 311.514 C 364.729 310.535 365.764 309.881 366.643 309.881 C 367.441 309.881 368.725 309.376 369.492 308.752 C 370.801 307.693 370.82 307.562 369.828 306.571 C 368.494 305.237 366.749 305.629 361.382 308.484 C 359.15 309.675 356.563 311.053 355.622 311.551 C 354.681 312.05 353.278 312.374 352.505 312.262 C 351.134 312.069 351.077 311.757 350.429 301.446 C 350.061 295.605 349.849 289.858 349.962 288.667 C 350.778 279.816 350.778 274.579 349.943 264.998 C 349.419 259.001 348.578 253.104 348.073 251.907 C 347.312 250.087 345.928 242.339 345.741 238.817 C 345.598 236.117 344.358 230.295 343.772 229.591 C 343.404 229.148 342.737 226.206 342.294 223.045 C 341.178 215.21 340.225 210.746 339.265 208.895 C 337.837 206.158 336.59 202.468 335.562 197.986 C 335.007 195.536 332.794 190.032 330.519 185.419 C 328.293 180.906 326.473 176.785 326.473 176.261 C 326.473 175.738 326.186 175.127 325.837 174.915 C 325.488 174.697 324.435 173.014 323.5 171.175 C 321.629 167.491 319.036 164.286 312.447 157.492 C 310.047 155.017 307.28 151.669 306.295 150.049 C 305.31 148.428 303.489 146.446 302.243 145.648 C 299.251 143.715 292.425 136.628 291.913 134.926 C 291.346 133.012 287.587 130.338 284.851 129.889 C 283.573 129.683 281.142 128.542 279.452 127.352 C 276.279 125.126 271.991 123.088 267.477 121.66 C 265.85 121.149 263.507 119.491 261.144 117.185 C 259.074 115.165 257.242 113.519 257.067 113.519 C 256.886 113.519 256.656 114.149 256.544 114.922 C 256.381 116.05 255.883 116.362 253.975 116.518 C 252.086 116.674 251.195 116.349 249.531 114.884 C 248.109 113.644 246.476 112.927 244.413 112.647 C 241.608 112.266 233.286 110.365 224.696 108.146 C 222.719 107.635 219.771 107.254 218.15 107.304 C 212.291 107.491 208.694 107.417 192.137 106.756 C 175.05 106.082 171.597 106.151 161.592 107.392 C 153.189 108.433 142.168 112.254 135.585 116.412 C 134.301 117.222 132.842 117.883 132.343 117.883 C 130.473 117.883 122.787 123.051 116.99 128.193 C 115.269 129.721 113.493 130.974 113.044 130.974 C 112.084 130.974 110.401 132.738 108.624 135.599 C 107.932 136.721 106.168 139.439 104.716 141.633 C 103.245 143.852 102.066 146.377 102.066 147.318 C 102.06 149.438 100.333 154.662 99.224 155.915 C 98.769 156.438 98.127 158.04 97.803 159.48 C 97.478 160.927 96.481 163.351 95.583 164.885 C 94.692 166.412 93.956 168.232 93.956 168.931 C 93.956 169.629 92.722 171.717 91.207 173.575 C 87.099 178.618 86.488 180.095 86.894 184.035 C 87.305 187.987 86.675 188.829 82.948 189.321 C 81.632 189.496 79.369 190.244 77.917 190.985 C 75.841 192.051 75.118 192.176 74.52 191.578 C 73.927 190.985 73.927 190.649 74.507 190.069 C 74.919 189.658 75.255 187.881 75.255 186.123 C 75.255 183.355 75.511 182.695 77.113 181.267 C 78.135 180.357 79.151 178.873 79.382 177.969 C 79.825 176.205 79.363 169.105 78.316 161.519 C 76.945 151.632 76.932 148.546 78.241 145.741 C 78.914 144.307 79.656 141.87 79.887 140.324 C 80.124 138.778 80.735 135.736 81.258 133.561 C 81.776 131.385 82.056 129.465 81.888 129.291 C 81.296 128.705 80.224 129.808 79.357 131.89 C 78.727 133.392 77.961 134.084 76.583 134.383 C 74.426 134.857 71.11 138.311 70.505 140.711 C 70.281 141.602 70.268 144.12 70.474 146.315 C 70.836 150.18 70.804 150.298 69.383 150.298 C 68.585 150.298 67.575 149.88 67.151 149.363 C 66.011 147.985 64.914 148.216 63.424 150.142 C 59.939 154.643 56.585 157.941 53.649 159.742 C 51.879 160.827 50.14 162.36 49.778 163.146 C 49.018 164.816 46.942 165.988 42.285 167.366 C 40.434 167.914 37.753 169.043 36.326 169.884 C 34.799 170.782 32.174 171.58 29.93 171.835 C 26.439 172.228 26.071 172.153 25.404 170.907 C 24.351 168.937 25.211 166.051 27.312 164.498 C 28.309 163.757 29.126 162.809 29.126 162.379 C 29.126 161.955 30.105 160.565 31.308 159.293 C 32.511 158.022 33.49 156.407 33.49 155.709 C 33.49 155.011 33.764 153.577 34.094 152.524 C 34.425 151.47 35.434 148.085 36.332 144.999 C 37.236 141.914 38.115 138.971 38.289 138.454 C 39.156 135.898 40.347 129.097 40.365 126.61 C 40.378 125.07 40.789 123.275 41.275 122.633 C 42.036 121.623 42.042 121.162 41.3 119.385 C 40.253 116.879 40.571 112.154 42.267 105.141 C 42.927 102.417 43.463 98.44 43.463 96.296 C 43.463 94.151 43.744 92.225 44.087 92.013 C 44.43 91.801 44.71 90.685 44.71 89.532 C 44.71 88.385 45.271 86.135 45.957 84.533 C 46.643 82.931 47.204 81.21 47.204 80.705 C 47.204 80.194 47.889 78.324 48.731 76.547 C 49.572 74.764 50.451 72.109 50.682 70.644 C 50.95 68.992 51.642 67.558 52.502 66.879 C 53.269 66.274 54.104 65.121 54.36 64.311 C 55.108 61.954 58.387 56.68 60.712 54.106 C 61.884 52.803 63.835 50.191 65.044 48.309 C 66.248 46.42 67.706 44.706 68.286 44.494 C 68.859 44.288 71.222 42.349 73.529 40.192 C 75.835 38.029 78.64 35.804 79.762 35.23 C 80.884 34.663 82.249 33.809 82.798 33.329 C 84.207 32.095 93.389 27.494 94.443 27.494 C 94.923 27.494 96.93 26.36 98.906 24.976 C 100.894 23.586 103.581 22.289 104.928 22.077 C 106.262 21.872 108.874 20.899 110.719 19.92 C 112.57 18.942 114.933 18.144 115.974 18.144 C 117.015 18.144 118.729 17.882 119.783 17.564 C 120.836 17.24 123.94 16.504 126.683 15.931 C 129.426 15.351 133.634 14.46 136.034 13.942 C 137.231 13.687 138.091 13.493 138.957 13.35 C 141.532 12.926 144.175 12.932 155.869 12.964 L 157.54 12.97 C 164.565 12.989 172.981 13.001 176.241 13.001 C 184.445 12.995 201.656 14.229 204.286 15.008 C 205.483 15.364 207.628 15.65 209.043 15.65 C 210.458 15.65 212.771 16.056 214.186 16.554 C 215.794 17.121 217.863 17.333 219.715 17.115 C 221.803 16.872 223.785 17.14 226.422 18.032 C 229.577 19.091 231.677 19.278 239.825 19.235 C 245.635 19.197 250.534 19.478 252.111 19.927 C 253.869 20.425 257.429 20.562 262.84 20.332 C 270.426 20.014 270.981 20.07 271.585 21.211 C 272.876 23.611 272.39 25.637 270.37 26.341 C 268.207 27.095 267.92 28.473 269.803 29.071 C 270.95 29.433 275.644 30.231 285.642 31.758 C 287.357 32.02 289.414 32.587 290.212 33.03 C 293.341 34.744 298.322 35.841 309.954 37.368 C 312.647 37.724 313.102 37.986 313.283 39.301 C 313.625 41.695 312.011 42.424 307.242 42.038 C 303.39 41.726 302.935 41.826 300.772 43.484 C 297.723 45.809 297.966 47.037 301.545 47.473 C 303.084 47.66 304.979 48.159 305.752 48.583 C 306.525 49.013 309.05 49.524 311.363 49.724 C 313.669 49.923 317.166 50.615 319.13 51.257 C 321.53 52.049 324.497 52.429 328.225 52.429 C 332.794 52.429 333.941 52.629 334.795 53.57 C 335.886 54.773 336.21 57.416 335.269 57.416 C 334.352 57.416 333.916 59.299 334.552 60.489 C 335.281 61.848 334.222 63.444 332.395 63.762 C 331.647 63.893 331.148 64.466 331.148 65.202 C 331.148 66.237 331.946 66.598 336.135 67.483 C 338.878 68.057 342.176 68.556 343.466 68.587 C 344.993 68.618 346.184 69.073 346.876 69.883 C 347.58 70.706 348.715 71.13 350.223 71.13 C 352.53 71.13 357.461 73.462 358.957 75.263 C 359.624 76.067 359.599 76.529 358.832 77.894 C 357.959 79.446 357.673 79.533 354.032 79.334 C 348.939 79.053 348.665 80.462 353.521 81.989 C 358.639 83.604 359.362 84.308 358.433 86.771 C 357.455 89.37 357.997 90.031 362.523 91.726 C 364.455 92.449 366.419 93.353 366.88 93.74 C 367.347 94.12 369.311 94.662 371.256 94.93 C 382.801 96.557 384.278 97.549 381.249 101.65 C 380.307 102.922 380.039 103.919 380.332 105.066 C 380.912 107.392 379.827 108.95 377.296 109.424 C 374.984 109.854 374.473 110.982 376.006 112.254 C 376.505 112.665 378.88 113.251 381.28 113.557 C 385.145 114.037 388.598 114.897 393.797 116.655 C 394.657 116.948 396.558 117.365 398.023 117.59 C 401.552 118.132 404.525 120.607 404.27 122.795 C 404.114 124.185 403.74 124.459 401.776 124.621 C 400.467 124.727 398.852 124.403 398.036 123.873 C 397.25 123.356 394.713 122.739 392.407 122.508 C 388.723 122.128 388.162 122.215 387.788 123.188 C 387.289 124.484 388.872 125.887 391.428 126.411 C 392.351 126.598 393.597 127.29 394.19 127.95 C 395.187 129.047 395.193 129.222 394.264 130.151 C 393.71 130.706 392.22 131.323 390.948 131.535 C 387.856 132.033 386.896 133.561 388.523 135.368 C 390.181 137.207 397.138 140.642 401.508 141.783 C 406.177 143.005 408.134 144.32 408.134 146.24 C 408.134 148.995 405.254 149.544 398.391 148.098 C 397.182 147.842 396.272 147.954 395.997 148.397 C 395.405 149.357 397.275 152.1 398.971 152.754 C 400.28 153.259 404.095 155.971 406.433 158.065 C 407.486 159 407.467 159.162 406.146 161.463 C 404.482 164.355 404.774 164.879 409.587 167.721 C 414.967 170.9 420.165 175.426 420.695 177.383 C 421.263 179.528 420.976 180.108 418.944 180.881 C 417.155 181.56 412.909 179.902 410.983 177.776 C 409.281 175.9 407.511 176.074 407.511 178.119 C 407.511 181.853 409.032 184.845 412.791 188.511 L 416.544 192.176 L 414.748 193.722 C 413.034 195.193 412.984 195.386 413.676 197.699 C 414.194 199.413 415.44 201.003 417.94 203.11 C 419.879 204.749 423.239 207.91 425.402 210.142 C 428.662 213.501 429.304 214.511 429.173 216.064 C 429.042 217.603 428.706 217.971 427.266 218.133 C 425.925 218.289 424.866 217.74 422.759 215.795 L 422.659 215.702 C 420.783 213.975 420.116 213.358 419.449 213.364 C 419.062 213.364 418.676 213.576 418.065 213.907 C 415.403 215.328 416.918 217.753 421.942 220.091 C 425.396 221.699 427.029 223.344 426.717 224.903 C 426.449 226.268 423.825 226.337 420.764 225.059 C 419.274 224.435 418.57 224.392 418.052 224.909 C 416.999 225.963 418.376 229.522 420.677 231.704 C 421.724 232.701 423.289 234.896 424.149 236.585 C 425.009 238.268 427.185 240.986 428.974 242.625 C 432.832 246.154 436.298 252.194 435.569 254.108 C 435.301 254.806 434.64 255.747 434.098 256.19 C 433.269 256.882 432.888 256.751 431.592 255.336 C 430.75 254.419 429.828 253.416 429.541 253.104 C 426.642 249.987 423.095 248.647 423.095 250.667 C 423.095 251.97 425.495 255.997 427.914 258.764 C 431.997 263.427 432.034 266.245 428.014 266.245 C 426.368 266.245 425.589 266.519 425.589 267.105 C 425.589 268.838 427.409 272.217 429.323 274.037 C 430.401 275.065 432.153 277.447 433.213 279.336 C 434.272 281.224 435.762 283.325 436.523 284.011 C 438.411 285.713 438.81 287.221 437.676 288.356 C 436.136 289.895 433.506 289.521 431.554 287.483 C 429.753 285.6 426.443 283.886 425.819 284.509 C 425.626 284.703 425.788 285.837 426.181 287.028 C 426.723 288.674 427.478 289.428 429.285 290.157 C 431.866 291.186 434.316 293.81 434.316 295.531 C 434.316 296.939 432.359 298.66 430.757 298.66 C 428.319 298.66 427.777 300.25 429.211 303.186 C 429.915 304.638 430.844 306.776 431.268 307.936 C 431.692 309.095 433.562 311.9 435.426 314.169 C 439.746 319.437 440.668 321.263 440.431 324.081 C 440.288 325.77 439.82 326.593 438.623 327.26 C 437.165 328.077 436.679 328.027 433.543 326.724 C 428.693 324.711 428.176 325.072 427.951 330.576 L 427.771 335.127 L 425.589 335.439 C 423.762 335.701 423.208 336.174 422.16 338.375 C 420.839 341.155 419.978 341.778 419.978 339.939 C 419.978 339.329 419.561 338.238 419.056 337.515 C 418.233 336.343 417.31 336.156 410.796 335.807 C 404.232 335.451 385.656 335.214 377.209 335.376 C 374.909 335.42 373.382 335.875 371.73 336.997 C 368.906 338.911 367.478 338.955 365.091 337.19 C 362.242 335.077 360.378 336.081 358.496 340.731 Z M 254.786 584.757 C 252.897 585.077 250.516 585.507 249.481 585.727 C 248.452 585.947 247.43 585.957 247.212 585.737 C 246.825 585.347 243.54 585.187 221.124 584.477 C 209.997 584.117 202.448 583.437 197.436 582.347 C 195.89 581.997 193.178 581.717 191.401 581.697 C 189.606 581.687 185.592 580.847 182.363 579.817 C 179.165 578.797 173.978 577.547 170.824 577.047 C 167.676 576.547 164.254 575.698 163.219 575.162 C 162.19 574.626 161.031 574.189 160.651 574.189 C 160.264 574.189 158.5 573.522 156.723 572.712 C 152.491 570.779 147.959 569.389 144.306 568.903 C 142.685 568.685 141.195 568.242 140.996 567.918 C 140.796 567.594 140.148 567.332 139.556 567.332 C 138.957 567.332 135.117 565.699 131.022 563.704 C 119.602 558.15 115.581 556.28 114.141 555.85 C 113.418 555.631 112.321 554.902 111.71 554.223 C 111.093 553.549 110.27 552.995 109.871 552.995 C 109.478 552.995 107.988 552.434 106.573 551.748 C 105.152 551.062 103.562 550.501 103.039 550.501 C 101.992 550.501 95.527 546.543 94.891 545.514 C 94.673 545.159 93.32 544.28 91.887 543.551 C 90.453 542.821 88.408 541.493 87.349 540.602 C 86.283 539.704 84.525 538.489 83.446 537.903 C 82.362 537.317 80.909 535.871 80.211 534.693 C 79.469 533.433 78.254 532.374 77.275 532.124 C 76.352 531.894 74.108 530.254 72.288 528.478 C 70.462 526.707 68.211 524.513 67.282 523.603 C 66.354 522.699 64.047 519.944 62.164 517.488 C 60.282 515.025 57.053 511.273 54.996 509.141 C 46.562 500.401 44.542 497.851 42.846 493.775 C 42.491 492.914 41.512 490.951 40.677 489.411 C 39.835 487.871 38.589 485.415 37.903 483.956 C 37.211 482.498 35.939 480.26 35.067 478.982 C 34.2 477.698 33.49 475.915 33.49 475.011 C 33.49 474.107 32.96 472.698 32.311 471.876 C 31.663 471.053 30.672 469.401 30.105 468.204 C 29.544 467.013 28.409 464.769 27.58 463.229 C 26.757 461.69 26.059 459.863 26.028 459.178 C 25.997 458.492 25.56 457.388 25.055 456.721 C 24.55 456.054 24.133 454.795 24.127 453.916 C 24.127 453.037 22.836 449.515 21.271 446.087 C 18.18 439.311 16.659 434.405 16.659 431.195 C 16.659 429.929 16.179 428.701 15.412 428.009 C 13.804 426.55 13.13 423.92 12.307 415.853 C 11.94 412.25 11.329 408.186 10.955 406.815 C 10.574 405.443 10.02 400.25 9.714 395.282 C 9.415 390.314 8.873 383.999 8.517 381.256 C 8.162 378.514 7.875 375.285 7.882 374.088 C 7.888 372.891 7.869 369.518 7.838 366.607 C 7.589 342.452 8.031 332.166 9.384 330.52 C 9.939 329.847 9.789 329.454 8.704 328.731 C 7.57 327.983 7.308 327.223 7.308 324.736 C 7.308 323.046 7.701 320.908 8.174 319.979 C 8.654 319.057 9.371 316.052 9.783 313.309 C 10.743 306.807 11.291 305.517 13.093 305.517 C 15.667 305.517 16.054 306.558 15.642 312.337 C 15.437 315.273 14.876 318.296 14.402 319.05 C 13.155 321.058 13.305 324.05 14.695 324.792 C 17.319 326.194 16.783 346.765 13.997 351.765 C 12.987 353.566 12.638 354.875 12.949 355.704 C 14.863 360.847 15.873 369.655 16.01 382.385 C 16.116 391.96 17.182 394.827 19.757 392.496 C 21.178 391.205 24.981 391.424 25.242 392.801 C 25.61 394.746 23.771 396.205 21.041 396.13 C 18.977 396.08 18.261 396.354 17.506 397.514 C 16.652 398.817 16.652 399.315 17.556 402.414 C 18.111 404.315 18.84 408.604 19.183 411.951 C 19.526 415.299 20.056 420.466 20.361 423.446 C 20.767 427.392 21.346 429.58 22.493 431.55 C 23.366 433.027 24.507 435.926 25.037 437.983 C 25.909 441.368 27.131 444.466 28.596 447.022 C 29.519 448.624 30.173 450.307 31.632 454.814 C 34.381 463.335 34.936 464.8 35.765 465.773 C 36.226 466.315 36.606 467.044 36.606 467.4 C 36.606 467.755 37.454 469.108 38.489 470.411 C 39.524 471.714 40.795 474.232 41.307 476.009 C 41.824 477.785 42.971 480.191 43.85 481.363 C 45.277 483.246 48.251 489.112 49.267 492.029 C 49.473 492.615 50.732 493.656 52.072 494.336 C 53.924 495.283 54.896 496.399 56.13 499.005 C 57.901 502.751 59.596 504.06 61.909 503.48 C 63.23 503.144 63.411 502.745 63.411 500.152 C 63.411 497.901 63.897 496.418 65.437 493.943 C 67.27 491.001 67.681 490.689 69.72 490.676 C 71.733 490.658 72.026 490.863 72.35 492.497 C 72.818 494.828 75.554 496.779 77.032 495.838 C 78.098 495.158 78.328 492.434 77.487 490.527 C 76.851 489.099 79.675 486.294 81.751 486.294 C 82.611 486.294 84.275 486.755 85.454 487.31 C 87.76 488.414 90.839 488.077 90.839 486.73 C 90.839 486.294 89.069 484.268 86.9 482.217 C 84.737 480.173 82.15 477.099 81.152 475.385 C 80.155 473.671 78.029 470.978 76.427 469.407 C 74.819 467.836 72.799 465.168 71.939 463.485 C 71.072 461.802 69.433 459.539 68.292 458.461 C 67.151 457.382 65.381 454.858 64.359 452.85 C 63.336 450.843 61.89 448.505 61.142 447.645 C 59.521 445.781 55.931 439.211 55.931 438.108 C 55.931 437.678 54.809 435.832 53.437 434.006 C 52.066 432.179 50.944 430.272 50.944 429.761 C 50.944 428.726 47.129 422.087 46.543 422.087 C 46.337 422.087 45.82 422.742 45.39 423.54 C 44.96 424.337 43.781 425.484 42.759 426.083 C 41.051 427.099 40.795 427.105 39.38 426.176 C 37.329 424.83 37.286 421.588 39.293 419.7 C 41.082 418.029 41.718 418.01 43.152 419.594 C 44.367 420.934 45.658 421.208 46.25 420.242 C 46.456 419.912 45.633 417.68 44.417 415.274 C 43.208 412.867 42.217 410.517 42.217 410.05 C 42.217 408.273 39.586 400.93 38.682 400.182 C 37.897 399.527 37.554 399.64 36.656 400.824 C 35.933 401.784 35.085 402.183 34.069 402.04 C 32.798 401.859 32.554 401.478 32.554 399.646 C 32.554 397.37 32.66 397.321 36.295 397.888 C 37.354 398.056 37.529 397.757 37.473 395.906 C 37.435 394.709 36.887 392.602 36.251 391.23 C 35.621 389.859 34.948 387.752 34.761 386.555 C 34.443 384.504 34.287 384.373 32.043 384.373 C 30.142 384.373 29.487 384.055 28.827 382.827 C 27.829 380.976 28.59 379.075 30.317 379.075 C 32.143 379.075 32.922 377.678 32.261 375.596 C 31.944 374.599 31.414 372.236 31.09 370.347 C 30.759 368.459 30.055 365.797 29.525 364.425 C 28.995 363.054 28.546 360.099 28.527 357.855 C 28.509 355.125 28.11 353.012 27.318 351.453 C 26.358 349.571 26.103 347.538 25.972 340.881 C 25.76 329.467 25.747 316.981 25.941 305.205 C 26.14 293.168 25.978 292.757 21.427 293.829 C 18.117 294.602 17.282 295.768 17.282 299.639 C 17.282 302.163 15.917 302.531 14.552 300.374 C 13.386 298.529 12.295 293.149 12.295 289.241 C 12.295 284.46 13.548 277.416 14.857 274.841 C 15.505 273.569 16.048 271.462 16.06 270.166 C 16.066 268.869 16.478 267.105 16.97 266.245 C 17.463 265.385 17.874 263.003 17.887 260.946 C 17.905 258.365 18.591 255.224 20.093 250.81 C 21.29 247.288 22.269 244.034 22.269 243.579 C 22.269 243.124 22.824 242.245 23.503 241.634 C 24.183 241.017 24.912 239.583 25.13 238.442 C 25.342 237.302 25.909 236.043 26.383 235.644 C 26.932 235.195 27.256 233.686 27.256 231.617 C 27.256 228.637 27.449 228.169 29.157 226.948 C 30.204 226.206 31.9 224.155 32.922 222.391 C 35.69 217.641 36.12 216.911 37.679 214.362 C 38.47 213.065 39.1 211.033 39.1 209.768 C 39.1 208.141 39.623 206.9 40.97 205.373 C 41.999 204.201 42.84 202.886 42.84 202.443 C 42.84 202.007 43.707 200.822 44.766 199.819 C 45.826 198.809 47.409 196.727 48.282 195.181 C 49.809 192.488 51.991 189.963 58.723 183.1 C 63.336 178.4 65.587 175.22 67.039 171.337 C 68.797 166.637 71.665 161.537 72.55 161.525 C 73.709 161.512 76.502 165.222 76.502 166.767 C 76.502 167.547 75.978 168.656 75.336 169.236 C 74.694 169.822 73.803 172.035 73.354 174.167 C 72.575 177.839 70.817 181.809 67.482 187.389 C 64.483 192.407 64.166 193.08 62.769 197.362 C 61.984 199.762 60.855 202.287 60.269 202.973 C 58.68 204.818 57.34 207.698 56.841 210.353 C 56.43 212.573 54.778 216.138 51.648 221.593 C 50.882 222.914 49.572 226.106 48.731 228.681 C 47.896 231.255 46.225 235.207 45.022 237.47 C 43.825 239.733 42.84 241.908 42.84 242.307 C 42.84 242.713 42.422 243.841 41.911 244.826 C 41.394 245.804 40.976 247.033 40.976 247.544 C 40.97 248.061 39.979 251.29 38.763 254.712 C 36.619 260.784 34.886 271.774 35.734 273.975 C 35.921 274.467 35.665 275.527 35.154 276.325 C 34.157 277.889 33.346 284.148 33.109 292.115 C 33.028 294.857 32.935 297.663 32.904 298.348 C 32.847 299.695 33.228 313.004 33.832 330.427 C 34.069 337.24 34.537 342.246 35.085 343.829 C 35.572 345.213 35.971 348.168 35.983 350.4 C 35.995 352.631 36.432 355.692 36.962 357.213 C 37.579 358.977 37.778 360.841 37.523 362.362 C 37.298 363.677 37.423 366.077 37.803 367.704 C 38.177 369.331 39.193 373.745 40.06 377.516 C 41.02 381.687 42.522 386.088 43.9 388.737 C 45.14 391.137 46.362 394.503 46.605 396.217 C 46.855 397.932 47.677 400.874 48.438 402.763 C 49.205 404.651 50.034 407.313 50.289 408.685 C 50.545 410.056 51.181 412.02 51.698 413.048 C 53.662 416.919 55.177 420.622 55.912 423.334 C 56.336 424.874 57.352 427.03 58.175 428.121 C 58.998 429.212 59.671 430.627 59.671 431.257 C 59.671 431.893 60.22 432.878 60.887 433.445 C 61.554 434.018 62.42 435.677 62.813 437.135 C 63.206 438.594 64.733 441.206 66.216 442.939 C 69.57 446.872 73.167 452.19 73.722 454.035 C 73.952 454.808 75.062 456.422 76.184 457.619 C 77.306 458.816 78.584 460.499 79.027 461.359 C 80.803 464.825 87.455 471.427 90.995 473.247 C 93.582 474.581 94.58 475.447 94.58 476.358 C 94.58 479.817 100.215 486.294 105.576 488.993 C 107.77 490.097 108.967 491.156 109.385 492.347 C 109.721 493.301 110.825 494.928 111.847 495.956 C 116.828 500.981 120.605 504.372 121.223 504.372 C 121.603 504.372 123.13 505.282 124.614 506.398 C 126.097 507.514 128.454 509.197 129.844 510.144 C 131.24 511.092 132.973 512.669 133.696 513.648 C 135.149 515.611 140.884 519.133 144.761 520.442 C 146.132 520.91 147.815 521.938 148.501 522.736 C 150.215 524.719 155.664 527.349 159.585 528.085 C 161.374 528.415 164.198 529.388 165.856 530.248 C 167.52 531.102 169.372 531.8 169.976 531.8 C 170.587 531.8 172.17 532.548 173.504 533.458 C 176.173 535.278 180.505 536.787 183.086 536.787 C 184.058 536.787 185.361 536.132 186.215 535.229 C 188.004 533.321 188.989 533.296 193.203 535.017 C 196.139 536.214 197.673 536.363 207.098 536.369 C 215.594 536.369 218.075 536.17 219.609 535.372 C 220.694 534.811 223.941 534.206 227.089 533.988 C 237.344 533.271 240.791 532.511 242.898 530.503 C 243.945 529.5 245.223 528.683 245.741 528.683 C 246.258 528.683 246.682 528.372 246.682 527.991 C 246.682 527.53 247.374 527.443 248.708 527.729 C 249.824 527.966 251.762 528.147 253.015 528.128 C 256.194 528.085 263.145 524.768 264.822 522.499 C 265.757 521.234 267.309 520.286 269.672 519.545 C 271.579 518.946 274.69 517.65 276.585 516.671 C 278.48 515.686 281.298 514.464 282.837 513.947 C 284.377 513.429 286.652 511.971 287.887 510.711 C 289.121 509.452 291.864 507.196 293.977 505.693 C 297.998 502.845 300.915 499.827 300.915 498.525 C 300.915 497.54 304.786 493.775 305.802 493.775 C 306.232 493.775 307.897 492.559 309.511 491.069 C 311.126 489.586 312.971 488.177 313.607 487.946 C 314.479 487.634 314.666 487.148 314.367 485.97 C 314.062 484.742 314.28 484.268 315.396 483.745 C 316.773 483.09 322.814 471.994 322.758 470.217 C 322.745 469.775 323.574 467.612 324.603 465.411 C 325.632 463.211 326.473 460.742 326.473 459.926 C 326.473 459.103 327.034 457.931 327.72 457.307 C 328.406 456.684 328.967 455.843 328.967 455.425 C 328.967 455.007 329.515 453.979 330.182 453.125 C 330.849 452.277 332.27 449.366 333.349 446.654 C 334.421 443.942 335.942 440.882 336.721 439.853 C 339.046 436.786 340.705 433.09 343.373 425.042 C 346.446 415.76 347.58 410.923 348.285 404.097 C 348.908 398.019 350.41 393.362 352.605 390.725 C 353.259 389.934 353.696 387.203 354.045 381.687 C 354.325 377.335 354.712 371.893 354.899 369.587 C 355.142 366.663 354.942 364.351 354.232 361.913 C 353.677 359.993 353.378 357.924 353.571 357.313 C 354.057 355.786 356.507 354.738 357.835 355.486 C 358.726 355.979 358.888 357.144 358.888 362.923 C 358.888 366.732 358.452 371.887 357.903 374.53 C 356.993 378.937 356.999 379.455 357.984 381.637 C 358.882 383.631 358.944 384.585 358.383 387.92 C 358.016 390.083 357.729 393.674 357.741 395.906 C 357.76 398.137 357.461 400.749 357.081 401.715 C 356.706 402.675 356.395 404.938 356.395 406.74 C 356.395 410.679 353.982 417.231 351.626 419.693 C 350.205 421.177 349.937 422.087 349.687 426.27 C 349.45 430.16 349.114 431.438 347.998 432.684 C 347.231 433.545 346.433 434.735 346.221 435.334 C 346.009 435.938 344.744 437.902 343.404 439.697 C 341.982 441.611 340.817 443.986 340.605 445.414 C 340.356 447.022 339.495 448.624 338.08 450.089 C 335.587 452.682 332.277 458.137 331.703 460.593 C 331.491 461.528 330.93 462.912 330.463 463.66 C 328.817 466.303 327.739 470.436 327.726 474.151 C 327.72 477.442 327.963 478.197 329.658 480.26 C 331.472 482.46 331.554 482.772 330.949 485.178 C 330.431 487.192 330.55 489.124 331.479 494.186 C 332.127 497.733 332.95 501.174 333.305 501.835 C 333.661 502.502 333.954 503.692 333.954 504.484 C 333.954 505.282 334.496 506.915 335.163 508.112 C 337.65 512.6 339.103 516.023 340.231 520.037 C 340.885 522.35 342.581 525.928 344.089 528.178 C 345.567 530.385 347.587 533.789 348.572 535.734 C 349.606 537.784 352.031 540.883 354.325 543.083 C 357.785 546.399 358.508 546.836 359.992 546.468 C 360.927 546.237 362.254 545.552 362.94 544.941 C 363.626 544.336 366.992 542.466 370.421 540.789 C 375.956 538.084 377.521 536.905 384.378 530.31 C 395.592 519.513 397.799 517.488 398.298 517.475 C 398.547 517.469 399.22 516.552 399.794 515.437 C 400.698 513.679 404.014 509.434 407.667 505.357 C 408.265 504.684 408.758 503.929 408.758 503.674 C 408.758 503.424 410.148 501.118 411.843 498.55 C 414.804 494.092 418.108 487.042 418.108 485.209 C 418.108 484.736 418.8 482.828 419.648 480.971 C 420.502 479.119 421.369 476.9 421.581 476.052 C 421.799 475.198 422.341 474.195 422.79 473.82 C 423.289 473.409 423.775 470.984 424.018 467.718 C 424.249 464.732 424.828 461.235 425.321 459.944 C 425.813 458.654 426.212 456.69 426.218 455.581 C 426.218 454.471 426.792 451.747 427.484 449.515 C 428.587 445.975 428.731 444.011 428.606 433.931 C 428.519 426.463 428.163 421.302 427.609 419.282 C 427.135 417.568 426.611 411.833 426.443 406.54 C 426.281 401.248 425.782 395.182 425.339 393.069 C 424.897 390.956 424.467 386.873 424.392 383.993 C 424.305 380.427 423.875 377.896 423.052 376.033 C 422.16 374.007 421.849 371.887 421.849 367.785 C 421.849 363.983 421.512 361.446 420.764 359.607 C 419.966 357.643 419.704 355.393 419.779 351.023 C 419.929 341.922 420.309 341.055 422.466 344.951 C 423.27 346.404 424.585 348.386 425.383 349.359 C 426.181 350.325 426.836 351.478 426.836 351.914 C 426.836 352.351 427.534 354.028 428.394 355.636 C 430.171 358.983 430.289 360.187 428.999 361.895 C 427.739 363.559 427.808 369.057 429.111 370.908 C 430.09 372.311 430.588 375.721 432.465 393.724 C 432.82 397.152 433.493 401.223 433.961 402.763 C 434.497 404.545 434.958 410.785 435.22 419.905 C 435.556 431.494 435.843 434.66 436.697 436.431 C 437.713 438.532 437.701 438.75 436.367 442.041 C 435.6 443.924 434.97 446.748 434.958 448.312 C 434.946 449.883 433.979 455.07 432.814 459.845 C 431.642 464.62 430.52 469.924 430.314 471.626 C 430.108 473.328 429.292 475.709 428.506 476.925 C 427.714 478.134 426.549 481.089 425.907 483.489 C 424.51 488.744 422.061 494.965 420.857 496.318 C 420.371 496.86 419.978 497.502 419.978 497.752 C 419.978 497.995 419.006 499.721 417.809 501.585 C 416.619 503.449 415.509 505.725 415.341 506.641 C 415.172 507.557 414.362 509.035 413.533 509.926 C 409.986 513.729 408.758 515.175 408.758 515.561 C 408.758 515.786 405.816 519.04 402.212 522.792 C 398.616 526.545 395.374 530.503 395.019 531.588 C 394.533 533.041 393.703 533.82 391.871 534.555 C 390.325 535.173 388.916 536.338 388.149 537.647 C 386.173 540.989 374.765 548.301 368.195 550.426 C 366.967 550.825 365.004 552.147 363.832 553.369 C 361.238 556.055 358.776 557.153 352.717 558.318 C 350.18 558.804 347.655 559.609 347.107 560.101 C 346.558 560.594 345.124 561.179 343.927 561.41 C 342.731 561.635 339.782 563.056 337.382 564.558 C 330.943 568.604 322.764 572.861 319.971 573.628 C 318.619 573.996 315.789 575.118 313.675 576.115 C 310.951 577.397 308.857 577.937 306.463 577.957 C 302.854 577.977 297 579.187 294.818 580.347 C 292.836 581.407 278.835 583.077 273.798 582.857 C 266.574 582.527 263.326 582.677 260.708 583.457 C 259.336 583.867 256.674 584.457 254.786 584.757 Z M 243.409 579.437 C 243.833 579.867 260.265 579.337 261.013 578.867 C 261.375 578.647 265.246 578.367 269.609 578.247 C 280.886 577.947 292.855 576.747 294.681 575.735 C 298.559 573.597 300.279 572.961 304.655 572.057 C 307.223 571.527 311.556 570.63 314.28 570.062 C 319.404 568.99 328.15 564.826 328.786 563.156 C 329.577 561.105 327.832 560.818 323.512 562.27 C 321.199 563.05 316.78 563.966 313.694 564.309 C 310.608 564.652 306.818 565.325 305.279 565.805 C 301.651 566.933 283.941 567.02 282.17 565.911 C 281.229 565.325 280.699 565.331 279.727 565.936 C 278.218 566.877 272.09 566.946 269.117 566.054 C 265.42 564.938 261.474 564.864 258.008 565.836 C 254.96 566.696 254.405 566.684 251.463 565.674 C 249.393 564.963 246.676 564.608 243.877 564.677 C 241.028 564.751 238.322 564.384 236.085 563.636 C 234.196 563 231.391 562.277 229.851 562.027 C 228.311 561.778 226.335 561.211 225.462 560.762 C 224.59 560.319 220.8 559.764 217.047 559.534 C 211.923 559.216 209.81 558.829 208.588 557.969 C 207.69 557.34 204.742 556.087 202.042 555.195 C 199.337 554.297 196.363 553.013 195.435 552.346 C 194.506 551.673 193.346 551.125 192.86 551.125 C 191.651 551.125 185.08 548.114 182.793 546.512 C 180.941 545.215 179.807 544.71 174.371 542.734 C 172.825 542.173 170.375 541.169 168.923 540.496 C 167.47 539.829 165.856 539.281 165.332 539.281 C 164.808 539.281 163.892 539.019 163.3 538.695 C 160.09 536.962 154.548 534.855 152.304 534.518 C 149.424 534.088 147.03 532.785 142.941 529.425 C 141.401 528.16 138.795 526.582 137.15 525.922 C 133.852 524.594 130.174 521.72 123.922 515.568 C 121.646 513.323 118.467 510.874 116.865 510.119 C 115.263 509.371 113.349 507.937 112.614 506.94 C 110.469 504.041 107.695 502.296 105.358 502.39 C 103.862 502.446 103.157 502.153 102.927 501.392 C 102.048 498.487 100.39 496.137 97.372 493.531 L 94.056 490.67 L 91.357 492.216 C 89.873 493.064 87.816 493.768 86.788 493.775 C 84.325 493.799 83.079 494.635 83.577 495.931 C 84.643 498.718 80.816 501.841 76.253 501.91 C 75.193 501.922 73.491 502.29 72.481 502.72 C 70.817 503.431 70.568 503.929 69.919 507.832 C 69.046 513.055 69.352 514.034 73.279 518.647 C 74.912 520.567 76.745 522.93 77.356 523.902 C 77.967 524.868 79.426 526.233 80.604 526.925 C 81.782 527.617 82.898 528.795 83.085 529.537 C 83.303 530.422 84.73 531.526 87.243 532.748 C 89.343 533.77 92.915 536.295 95.172 538.364 C 97.428 540.434 100.252 542.503 101.449 542.958 C 102.64 543.42 104.809 544.317 106.262 544.966 C 107.714 545.608 109.46 546.138 110.139 546.138 C 111.38 546.138 113.281 543.364 113.281 541.556 C 113.281 540.702 114.409 539.997 121.696 536.276 C 125.293 534.443 131.446 533.695 132.917 534.917 C 134.27 536.039 134.064 537.816 132.449 538.956 C 131.178 539.854 127.444 541.088 123.199 542.017 C 121.428 542.404 116.123 548.912 116.603 550.108 C 117.295 551.841 134.831 558.736 141.214 559.783 C 143.383 560.138 147.292 561.454 149.904 562.713 C 152.516 563.966 156.549 565.312 158.862 565.705 C 161.174 566.098 163.861 566.989 164.821 567.694 C 166.903 569.215 172.351 571.072 174.726 571.072 C 175.649 571.072 177.344 571.652 178.491 572.363 C 179.663 573.086 182.157 573.803 184.177 573.99 C 186.153 574.177 189.319 575.043 191.202 575.91 C 194.219 577.307 195.615 577.517 202.828 577.697 C 207.341 577.807 212.247 578.157 213.737 578.467 C 215.227 578.787 222.451 579.067 229.795 579.097 C 237.132 579.137 243.26 579.287 243.409 579.437 Z M 272.863 562.881 C 275.232 563.561 289.763 563.124 291.945 562.308 C 293.597 561.697 294.451 557.377 293.329 555.314 C 292.917 554.553 292.568 552.109 292.556 549.878 C 292.531 545.19 293.79 542.273 296.371 541.032 C 298.421 540.041 299.899 535.74 299.381 532.268 C 298.964 529.475 299.662 529.288 302.274 531.488 C 303.296 532.349 304.512 533.047 304.979 533.047 C 307.828 533.047 308.85 540.858 306.413 543.962 L 305.048 545.689 L 306.725 548.887 C 307.641 550.645 308.395 552.402 308.395 552.795 C 308.395 553.194 306.943 553.824 305.166 554.21 C 303.39 554.59 301.563 555.208 301.108 555.588 C 300.653 555.962 299.319 556.118 298.141 555.924 C 294.868 555.395 294.276 556.722 296.863 558.786 C 299.188 560.643 303.066 561.055 306.326 559.796 C 307.292 559.428 310.889 558.867 314.317 558.549 C 317.746 558.237 321.947 557.657 323.649 557.258 C 327.215 556.436 332.389 553.973 334.24 552.215 C 334.938 551.555 336.534 550.489 337.781 549.847 C 340.181 548.606 343.927 544.074 343.927 542.397 C 343.927 541.849 343.659 541.132 343.335 540.808 C 342.475 539.948 336.447 529.93 336.447 529.363 C 336.447 529.101 335.612 527.368 334.589 525.51 C 333.567 523.653 332.725 521.39 332.719 520.473 C 332.713 519.557 332.314 518.017 331.84 517.045 C 331.367 516.072 330.631 514.296 330.213 513.099 C 328.48 508.112 327.614 505.824 326.76 503.967 C 326.255 502.888 325.85 501.654 325.85 501.236 C 325.85 500.812 325.307 499.584 324.64 498.506 C 323.718 497.016 323.456 495.564 323.543 492.447 C 323.718 486.007 321.181 484.281 317.933 488.632 C 316.973 489.916 313.987 493.182 311.306 495.888 C 308.62 498.599 304.998 502.527 303.259 504.615 C 301.52 506.709 299.35 508.879 298.44 509.434 C 297.53 509.988 295.03 512.17 292.88 514.277 C 290.735 516.384 287.874 518.672 286.534 519.358 C 285.162 520.056 284.084 521.066 284.084 521.645 C 284.084 523.285 286.627 525.566 288.454 525.566 C 289.364 525.566 290.28 525.741 290.492 525.947 C 290.891 526.352 288.516 530.08 287.606 530.472 C 286.253 531.052 280.562 536.531 279.808 537.971 C 278.499 540.484 277.227 541.207 274.895 540.77 C 273.293 540.471 271.897 540.833 268.78 542.366 C 266.561 543.457 264.043 544.479 263.189 544.635 C 262.335 544.791 260.652 545.464 259.455 546.138 C 257.067 547.484 256.749 547.172 258.283 544.984 C 258.937 544.049 259.155 542.902 258.919 541.705 C 258.364 538.931 260.433 538.196 266.062 539.162 L 266.156 539.175 C 269.84 539.81 271.186 540.041 272.047 539.499 C 272.545 539.181 272.882 538.601 273.424 537.685 C 275.076 534.892 275.326 528.06 273.78 528.06 C 273.225 528.06 272.676 528.833 272.458 529.942 C 271.959 532.436 271.405 532.704 266.63 532.779 C 264.149 532.816 261.132 533.371 258.856 534.2 C 256.812 534.954 253.589 535.852 251.687 536.201 C 240.18 538.333 236.988 538.744 231.098 538.85 C 225.419 538.95 224.29 539.156 222.589 540.371 C 221.504 541.144 220.014 541.774 219.272 541.774 C 215.351 541.774 214.398 544.598 217.383 547.384 C 218.761 548.668 219.254 549.697 219.254 551.274 C 219.254 553.643 220.918 554.865 224.147 554.865 C 225.088 554.865 226.154 555.158 226.516 555.519 C 227.251 556.255 238.777 558.063 242.63 558.05 C 244.001 558.044 246.707 558.449 248.639 558.948 C 250.578 559.447 253.52 559.852 255.185 559.858 C 256.849 559.858 259.018 560.282 260.003 560.793 C 260.988 561.304 263.793 561.846 266.237 561.99 C 268.681 562.139 271.666 562.538 272.863 562.881 Z M 283.573 382.547 C 280.094 383.999 277.832 383.295 276.628 380.377 C 275.937 378.713 276.018 377.741 277.189 373.308 C 280.468 360.947 280.637 360.006 279.652 359.395 C 279.209 359.121 276.398 358.965 273.406 359.052 C 269.092 359.177 267.116 358.915 263.862 357.799 C 260.34 356.59 259.461 356.496 257.691 357.132 C 254.717 358.21 240.847 358.117 238.703 357.007 C 235.187 355.193 234.632 353.965 234.713 348.237 L 234.794 342.969 L 232.681 342.57 C 230.2 342.103 227.083 342.682 226.179 343.773 C 225.83 344.197 225.394 346.846 225.219 349.658 C 224.845 355.592 224.396 356.677 221.523 358.447 C 219.029 359.993 215.488 360.124 211.773 358.815 C 206.462 356.939 201.02 358.354 198.421 362.281 C 196.631 364.98 195.902 365.217 193.833 363.765 C 192.555 362.867 192.449 362.312 192.474 356.44 C 192.48 352.949 192.885 348.268 193.359 346.042 C 193.839 343.817 194.101 341.866 193.939 341.71 C 193.047 340.818 189.338 341.604 187.368 343.106 C 186.153 344.029 184.681 344.789 184.089 344.789 C 183.497 344.789 182.425 345.107 181.696 345.494 C 180.542 346.111 180.087 345.886 177.999 343.649 C 174.87 340.301 174.895 338.612 178.092 336.075 L 180.567 334.117 L 187.599 334.385 C 191.464 334.535 203.607 334.977 214.578 335.358 C 225.55 335.744 236.022 336.336 237.855 336.673 C 240.043 337.078 241.583 337.078 242.337 336.679 C 243.833 335.875 249.612 335.881 250.11 336.685 C 250.322 337.028 251.126 337.309 251.893 337.309 C 252.66 337.309 253.632 337.652 254.05 338.069 C 254.617 338.637 255.104 338.662 255.914 338.15 C 257.934 336.891 260.77 336.567 261.549 337.502 C 262.677 338.867 264.124 344.203 264.13 347.052 C 264.136 350.069 264.56 350.499 269.254 352.257 C 272.309 353.398 273.169 353.485 275.481 352.887 C 276.953 352.5 279.215 351.914 280.5 351.578 C 283.373 350.836 283.498 349.664 281.235 344.796 C 279.776 341.666 279.702 341.143 280.394 338.562 C 281.285 335.221 282.382 334.192 285.063 334.192 C 288.323 334.192 288.672 335.189 288.292 343.443 C 287.961 350.58 288.279 352.532 289.95 353.66 C 291.209 354.514 293.877 354.146 295.448 352.918 C 296.757 351.883 297.056 351.017 297.324 347.464 C 297.655 343.125 300.048 337.209 302.112 335.613 C 303.383 334.635 306.064 334.603 307.024 335.563 C 307.435 335.975 307.772 337.639 307.772 339.26 C 307.772 341.766 307.504 342.42 305.958 343.655 C 304.032 345.188 302.162 350.206 302.162 353.834 C 302.162 357.681 298.34 359.75 291.234 359.75 C 286.266 359.75 285.331 360.361 285.331 363.603 C 285.324 364.4 284.751 365.99 284.047 367.15 C 282.176 370.217 282.632 372.361 285.331 373.227 C 287.064 373.788 287.556 374.3 287.724 375.721 C 288.03 378.302 286.091 381.493 283.573 382.547 Z M 193.515 291.647 C 191.62 293.717 188.179 293.555 186.022 291.304 C 184.657 289.877 184.351 288.985 184.37 286.473 C 184.376 284.778 184.787 282.689 185.28 281.829 C 185.772 280.969 186.184 279.267 186.19 278.045 C 186.203 276.823 186.614 274.436 187.1 272.747 C 188.235 268.776 189.394 256.495 188.908 253.509 C 188.652 251.951 187.998 250.86 186.907 250.162 C 186.009 249.588 184.912 248.628 184.463 248.024 C 183.572 246.808 181.82 246.577 180.86 247.537 C 180.081 248.317 167.346 248.554 161.498 247.893 C 157.235 247.407 157.01 247.45 156.275 248.828 C 155.664 249.969 155.67 251.309 156.299 255.386 C 157.185 261.071 156.873 265.31 155.464 266.719 C 154.76 267.423 152.809 267.666 147.466 267.722 C 141.264 267.791 139.998 267.622 137.131 266.326 C 133.846 264.842 130.243 260.859 128.416 256.701 C 127.176 253.871 128.441 249.657 132.013 244.757 C 133.709 242.432 135.099 240.263 135.099 239.945 C 135.099 238.891 143.446 229.715 147.36 226.461 C 149.48 224.703 151.394 222.977 151.606 222.628 C 151.824 222.272 153.482 221.986 155.283 221.986 C 157.914 221.986 158.843 222.272 159.928 223.426 C 161.735 225.352 161.636 226.399 159.454 228.494 C 157.902 229.977 157.291 230.183 155.433 229.834 C 153.027 229.379 148.813 230.763 148.813 232.003 C 148.813 232.402 147.971 233.686 146.943 234.858 C 145.914 236.03 145.073 237.227 145.073 237.514 C 145.073 239.951 154.274 241.547 173.748 242.488 C 182.531 242.912 183.559 242.856 185.062 241.821 C 187.412 240.213 190.666 240.35 192.343 242.127 C 193.085 242.925 193.695 244.028 193.695 244.589 C 193.695 245.144 193.963 245.767 194.288 245.967 C 194.643 246.185 194.73 249.302 194.506 253.734 C 194.138 261.089 194.144 261.139 195.759 262.754 C 197.66 264.655 200.241 264.873 201.132 263.209 C 201.818 261.925 202.423 259.674 204.592 250.349 C 205.901 244.714 206.263 243.928 208.388 242.089 C 212.958 238.143 218.007 240.101 218.007 245.817 C 218.007 248.385 216.729 250.018 211.885 253.628 C 210.626 254.569 209.654 256.134 208.974 258.303 C 207.447 263.184 204.324 269.362 201.992 272.123 C 200.858 273.47 199.929 274.922 199.929 275.346 C 199.929 275.776 199.231 276.954 198.371 277.977 C 197.149 279.429 196.812 280.52 196.812 283.038 C 196.812 286.38 195.715 289.241 193.515 291.647 Z M 121.958 360.398 C 118.704 362.057 118.243 361.976 115.587 359.258 C 113.611 357.226 113.281 356.49 113.281 354.04 C 113.281 352.22 113.698 350.655 114.434 349.701 C 115.07 348.885 115.787 347.376 116.03 346.348 L 116.036 346.317 C 116.828 342.988 117.102 341.828 116.647 341.136 C 116.404 340.762 115.949 340.525 115.244 340.164 C 112.726 338.861 110.868 338.923 107.583 340.413 C 104.161 341.965 101.312 342.009 99.972 340.532 C 95.833 335.95 104.099 332.515 117.333 333.313 C 121.104 333.544 125.031 334.061 126.06 334.473 C 128.971 335.638 144.711 335.576 147.678 334.385 C 149 333.855 151.524 333.388 153.301 333.344 C 156.162 333.269 156.611 333.432 157.291 334.815 C 160.657 341.685 159.965 356.945 156.243 357.992 C 155.414 358.223 153.588 358.747 152.185 359.152 C 150.078 359.756 149.318 359.719 147.822 358.94 C 144.181 357.045 143.39 355.53 142.928 349.502 C 142.691 346.435 142.236 343.443 141.918 342.851 C 141.258 341.616 136.994 340.569 130.336 340.008 C 124.664 339.528 123.217 340.326 121.784 344.708 C 120.362 349.053 120.468 349.645 122.943 351.104 C 124.832 352.22 125.125 352.712 125.125 354.776 C 125.125 358.179 124.651 359.027 121.958 360.398 Z M 408.047 324.997 C 410.173 327.248 411.831 327.79 414.007 326.955 C 415.584 326.35 415.166 325.558 412.654 324.374 C 409.749 323.009 409.182 320.79 411.332 319.169 L 412.779 318.078 L 411.239 316.576 C 410.385 315.747 408.907 314.045 407.954 312.786 C 406.994 311.533 405.828 310.504 405.36 310.504 C 404.887 310.504 403.777 309.644 402.892 308.584 C 401.589 307.038 401.271 305.991 401.234 303.13 C 401.209 301.185 400.997 299.127 400.766 298.554 C 400.024 296.74 397.07 294.895 393.354 293.922 C 388.997 292.788 387.283 293.355 386.734 296.104 C 386.435 297.613 385.749 298.298 383.474 299.364 C 381.51 300.293 380.276 301.384 379.597 302.818 C 379.048 303.971 377.689 305.448 376.573 306.103 C 375.457 306.764 374.086 308.198 373.519 309.288 C 372.565 311.14 372.565 311.47 373.537 314.02 C 374.672 316.999 375.975 318.608 377.234 318.608 C 377.677 318.608 379.117 317.878 380.432 316.987 C 382.371 315.665 383.299 315.422 385.35 315.703 C 386.74 315.896 390.599 315.734 393.934 315.348 C 400.897 314.537 401.333 314.73 404.245 319.855 C 405.124 321.394 406.832 323.713 408.047 324.997 Z M 109.347 79.938 C 116.254 80.574 116.834 80.381 122.687 75.494 C 124.72 73.798 127.618 66.816 127.618 63.606 C 127.618 62.59 126.914 60.639 126.054 59.274 C 124.358 56.587 122.825 56.163 119.801 57.541 C 118.386 58.183 118.199 58.594 118.424 60.502 C 118.717 62.939 118.118 65.85 116.591 69.416 C 115.78 71.305 115.257 71.754 113.879 71.754 C 112.427 71.754 112.115 71.436 111.772 69.609 C 111.504 68.207 110.924 67.321 110.083 67.053 C 109.378 66.829 108.418 65.732 107.951 64.61 C 107.066 62.49 104.317 60.87 102.272 61.262 C 101.63 61.387 100.489 62.839 99.66 64.591 C 98.445 67.159 98.295 68.032 98.825 69.572 C 99.174 70.6 99.648 72.358 99.878 73.474 C 100.115 74.64 100.863 75.799 101.642 76.198 C 102.384 76.578 103.469 77.482 104.049 78.218 C 104.865 79.246 106.056 79.633 109.347 79.938 Z M 25.18 263.957 C 26.29 265.067 29.095 264.281 30.666 262.417 C 32.143 260.659 32.268 260.123 31.906 257.212 C 31.576 254.594 31.75 253.466 32.804 251.402 C 33.527 249.994 34.113 248.111 34.113 247.226 C 34.113 246.341 34.524 244.813 35.029 243.841 C 35.534 242.862 36.126 240.924 36.351 239.533 C 36.575 238.143 37.286 236.529 37.928 235.943 C 38.57 235.363 39.1 234.578 39.1 234.204 C 39.106 233.399 44.249 222.372 45.159 221.219 C 46.244 219.841 48.419 211.731 47.864 211.176 C 46.904 210.216 43.806 212.249 43.152 214.262 C 42.809 215.322 42.173 216.606 41.749 217.123 C 41.319 217.641 40.714 219.405 40.409 221.032 C 40.103 222.665 39.281 224.741 38.576 225.645 C 36.812 227.901 31.619 237.981 31.619 239.141 C 31.619 239.664 30.878 241.21 29.974 242.575 C 29.07 243.941 27.711 247.444 26.957 250.355 C 26.202 253.272 25.404 255.841 25.174 256.065 C 24.638 256.607 24.638 263.421 25.18 263.957 Z M 141.918 261.021 C 143.726 262.261 144.773 262.511 147.566 262.367 L 150.995 262.193 L 151.182 259.625 C 151.313 257.848 150.864 255.997 149.717 253.578 C 147.753 249.426 147.279 248.99 142.691 247.126 L 139.157 245.686 L 137.056 247.787 C 134.793 250.05 133.684 253.802 134.569 256.196 C 134.849 256.95 136.121 258.01 137.386 258.54 C 138.658 259.07 140.697 260.186 141.918 261.021 Z M 386.865 419.905 C 382.308 423.066 380.993 423.44 379.665 421.962 C 379.036 421.27 377.895 420.454 377.122 420.161 C 376 419.731 375.719 419.139 375.719 417.181 C 375.719 414.831 375.8 414.738 377.677 414.825 C 379.341 414.906 379.734 414.632 380.251 413.048 C 381.473 409.339 384.004 407.893 385.693 409.931 C 386.809 411.278 387.775 411.103 390.892 408.996 C 394.289 406.709 395.667 406.596 395.667 408.61 C 395.667 412.425 393.329 415.423 386.865 419.905 Z M 396.11 468.896 C 394.975 470.716 393.579 470.33 391.366 467.574 C 389.458 465.199 389.39 464.944 390.094 462.743 C 392.419 455.5 394.713 452.701 398.516 452.47 C 400.654 452.339 400.991 452.501 401.171 453.76 C 401.284 454.552 400.91 455.905 400.342 456.771 C 398.927 458.934 399.551 460.113 402.119 460.113 C 404.837 460.113 405.878 461.285 405.055 463.435 C 404.4 465.174 402.169 466.558 398.909 467.263 C 397.78 467.506 396.521 468.241 396.11 468.896 Z M 411.762 421.539 C 411.6 423.284 411.282 423.677 409.93 423.833 C 408.72 423.976 407.86 423.496 406.582 421.981 C 404.918 420.005 404.874 419.743 405.173 414.432 C 405.441 409.769 405.71 408.691 406.95 407.376 C 408.004 406.254 408.932 405.873 410.298 406.004 C 411.931 406.166 412.211 406.472 412.38 408.223 C 412.51 409.564 412.143 410.81 411.301 411.883 C 410.067 413.447 410.061 414.607 411.289 414.607 C 411.607 414.607 412.959 413.622 414.287 412.425 C 415.615 411.228 417.005 410.243 417.385 410.243 C 418.638 410.243 419.498 412.836 419.087 415.392 C 418.408 419.675 417.84 420.242 414.711 419.812 L 411.968 419.438 L 411.762 421.539 Z M 364.137 496.511 C 362.36 497.191 360.97 496.91 359.823 495.645 C 359.2 494.959 358.221 494.398 357.642 494.398 C 355.51 494.398 353.29 489.885 353.284 485.527 C 353.272 481.451 358.402 476.719 362.473 477.062 C 364.517 477.237 364.829 477.492 365.315 479.437 C 365.621 480.634 366.007 482.809 366.182 484.268 C 366.543 487.341 365.608 487.74 362.759 485.721 C 358.639 482.809 355.902 484.1 359.106 487.447 C 360.004 488.382 360.914 490.028 361.132 491.113 C 361.419 492.547 362.011 493.251 363.32 493.706 C 365.278 494.385 365.714 495.906 364.137 496.511 Z M 352.767 465.093 C 351.165 465.792 344.37 465.96 343.722 465.305 C 343.491 465.081 343.304 463.585 343.304 461.989 C 343.304 458.305 346.496 452.009 348.36 452.009 C 349.463 452.009 349.544 452.308 349.17 455.094 C 348.777 458.068 348.827 458.199 350.442 458.604 C 351.364 458.835 352.804 458.716 353.633 458.336 L 355.142 457.65 L 353.864 455.294 C 353.166 454.004 352.281 452.489 351.9 451.94 C 350.965 450.575 351.707 448.892 353.247 448.892 C 354.182 448.892 355.048 449.989 356.613 453.156 C 359.886 459.77 359.057 462.332 352.767 465.093 Z M 379.123 398.33 C 375.408 400.525 374.466 400.107 374.479 396.267 C 374.491 391.685 375.171 388.974 376.255 389.179 C 376.804 389.285 377.546 389.971 377.907 390.7 C 379.123 393.138 380.22 394.035 381.965 394.035 C 383.356 394.035 383.842 393.643 384.397 392.034 C 385.269 389.529 387.439 387.178 388.879 387.178 C 389.477 387.178 390.574 388.02 391.303 389.049 C 392.263 390.401 393.142 390.919 394.464 390.919 C 396.702 390.919 396.783 391.741 394.732 393.531 C 393.872 394.272 393.174 395.17 393.174 395.519 C 393.174 396.417 389.969 399.646 389.084 399.646 C 388.673 399.646 388 399.241 387.588 398.742 C 387.177 398.243 385.606 397.651 384.097 397.427 C 381.922 397.102 380.893 397.283 379.123 398.33 Z M 18.466 289.041 C 18.666 289.241 19.638 289.241 20.629 289.048 C 21.614 288.848 22.967 288.686 23.628 288.686 C 25.136 288.686 26.689 285.282 27.324 280.582 C 27.58 278.693 27.979 276.375 28.222 275.415 C 28.534 274.18 28.347 273.339 27.568 272.485 C 26.832 271.668 26.614 270.77 26.882 269.686 C 27.212 268.377 27.006 267.99 25.716 267.498 C 24.856 267.174 23.728 267.068 23.21 267.267 C 21.845 267.784 22.057 269.835 23.516 270.297 C 25.367 270.883 25.03 271.668 22.581 272.478 C 20.237 273.251 20.1 273.563 19.495 279.336 C 19.302 281.224 18.909 284.092 18.622 285.719 C 18.335 287.346 18.267 288.842 18.466 289.041 Z M 373.537 378.919 C 370.695 380.677 370.034 380.67 368.345 378.881 C 366.518 376.93 366.631 375.927 369.099 372.062 C 370.259 370.248 371.312 368.24 371.437 367.598 C 371.848 365.51 373.531 364.98 376.018 366.165 C 377.246 366.751 379.085 367.231 380.102 367.231 C 382.177 367.231 382.371 367.686 381.037 369.45 C 380.532 370.117 380.114 371.401 380.102 372.311 C 380.083 374.032 377.92 376.213 373.537 378.919 Z M 251.856 553.362 C 249.524 553.45 246.146 553.712 244.35 553.942 C 241.227 554.341 241.059 554.291 240.454 552.702 C 239.663 550.62 239.669 550.046 240.504 546.163 C 241.664 540.733 245.529 540.24 247.935 545.221 C 248.689 546.78 249.718 548.463 250.223 548.961 C 251.257 550.002 254.518 550.196 255.097 549.254 C 255.739 548.213 256.668 548.55 257.235 550.034 C 258.108 552.284 256.656 553.182 251.856 553.362 Z M 383.087 500.482 C 382.938 501.772 382.508 502.234 381.33 502.371 C 380.002 502.52 379.559 502.09 378.369 499.478 C 377.452 497.465 376.966 495.208 376.966 492.939 C 376.966 491.032 376.648 488.769 376.255 487.909 C 375.713 486.718 375.732 485.895 376.343 484.43 C 377.253 482.23 378.425 482.255 378.73 484.474 C 378.849 485.303 379.173 486.219 379.447 486.512 C 380.363 487.466 382.458 486.282 383.761 484.075 C 384.908 482.13 387.912 480.204 388.648 480.939 C 388.81 481.095 388.492 481.862 387.95 482.635 C 387.264 483.614 387.077 484.761 387.339 486.388 C 387.682 488.52 387.569 488.763 386.105 489.13 C 384.284 489.586 381.33 493.114 381.33 494.841 C 381.33 495.476 381.766 496.617 382.308 497.384 C 382.844 498.151 383.193 499.547 383.087 500.482 Z M 379.79 469.195 C 379.204 470.61 378.518 471.296 377.776 471.227 C 377.159 471.165 375.389 471.015 373.849 470.897 C 369.635 470.573 368.058 469.575 368.476 467.487 C 368.756 466.097 368.469 465.53 366.973 464.464 C 364.642 462.799 364.511 460.593 366.68 459.601 C 367.628 459.171 368.875 457.551 369.847 455.5 C 371.399 452.221 372.721 450.999 373.905 451.735 C 375.021 452.42 374.441 454.253 372.602 455.867 C 370.913 457.351 370.732 457.868 370.732 461.291 C 370.732 464.632 370.913 465.187 372.284 466.091 C 374.198 467.337 376.654 466.845 377.633 465.012 C 378.238 463.884 378.082 463.454 376.573 462.058 L 374.803 460.424 L 376.586 460.219 C 378.886 459.957 379.484 460.618 380.145 464.152 C 380.544 466.296 380.451 467.624 379.79 469.195 Z M 353.783 511.416 C 353.552 513.049 351.564 513.604 351.021 512.189 C 350.809 511.634 349.787 510.749 348.759 510.213 C 346.963 509.284 346.901 509.109 347.25 506.161 C 347.543 503.661 348.173 502.421 350.548 499.64 C 353.078 496.673 353.745 496.231 355.41 496.393 C 356.987 496.549 357.367 496.885 357.529 498.294 C 357.748 500.233 357.841 500.276 359.667 499.298 C 360.79 498.699 361.182 498.83 362.279 500.158 C 362.984 501.018 364.63 502.065 365.932 502.483 C 368.613 503.343 368.694 504.584 366.101 504.889 C 364.006 505.132 361.238 504.066 359.773 502.446 C 358.296 500.812 357.959 500.918 356.438 503.499 C 355.366 505.319 354.949 505.606 354.232 505.008 C 352.692 503.73 350.498 504.484 350.28 506.36 C 350.124 507.707 350.473 508.243 352.031 509.047 C 353.459 509.783 353.926 510.419 353.783 511.416 Z M 200.97 549.055 C 209.186 552.022 210.464 551.785 210.981 547.21 C 211.249 544.828 211.1 544.286 210.034 543.713 C 208.139 542.697 192.954 542.503 192.617 543.488 C 192.131 544.885 195.354 547.029 200.97 549.055 Z M 388.816 355.692 C 385.275 357.487 381.485 357.768 380.918 356.278 C 380.712 355.742 380.687 353.654 380.875 351.634 C 381.46 345.145 385.762 341.392 386.204 346.977 C 386.454 350.15 387.195 350.923 388.692 349.577 C 390.138 348.261 391.21 348.255 392.631 349.539 C 393.647 350.462 393.666 350.711 392.824 352.345 C 392.282 353.386 390.612 354.788 388.816 355.692 Z M 146.756 350.531 C 148.738 352.6 150.764 352.737 153.239 350.979 C 154.897 349.801 155.047 349.377 155.047 345.886 C 155.047 339.272 151.83 337.87 147.036 342.389 C 144.661 344.633 144.374 345.188 144.711 346.871 C 144.923 347.931 145.846 349.577 146.756 350.531 Z M 244.812 351.204 C 246.221 351.721 247.978 351.678 250.665 351.054 C 255.721 349.882 255.908 347.426 251.226 343.848 C 248.097 341.46 246.326 341.18 243.534 342.626 C 241.925 343.455 241.695 343.917 241.695 346.267 C 241.695 348.928 242.624 350.4 244.812 351.204 Z M 214.578 352.313 C 217.44 353.005 217.845 352.968 218.898 351.914 C 220.02 350.792 220.232 345.992 219.235 344.129 C 218.474 342.713 215.476 341.049 213.687 341.049 C 211.948 341.049 210.558 343.418 210.115 347.139 C 209.778 349.988 209.878 350.344 211.225 351.067 C 212.041 351.503 213.55 352.064 214.578 352.313 Z M 376.436 524.482 C 373.693 526.096 367.503 526.626 366.431 525.33 C 365.727 524.482 365.758 524.083 366.618 522.767 C 367.185 521.907 368.158 521.203 368.781 521.203 C 369.405 521.203 370.402 520.667 370.994 520.006 C 371.991 518.909 371.998 518.697 371.081 517.294 C 370.159 515.892 370.165 515.698 371.106 514.919 C 371.991 514.184 372.303 514.296 373.481 515.767 C 374.497 517.045 375.383 517.463 377.072 517.463 C 380.313 517.463 381.155 518.772 379.565 521.34 C 378.867 522.462 377.465 523.877 376.436 524.482 Z M 194.836 197.78 C 194.612 199.351 193.452 199.769 191.514 198.965 C 189.644 198.185 188.228 196.359 187.175 193.379 C 186.658 191.908 185.511 189.851 184.632 188.804 C 182.375 186.123 182.774 184.322 185.691 184.085 C 187.823 183.904 188.129 184.116 190.522 187.457 C 191.925 189.414 193.072 191.285 193.072 191.603 C 193.072 191.927 193.515 193.124 194.057 194.264 C 194.599 195.405 194.948 196.982 194.836 197.78 Z M 394.495 375.864 C 392.65 376.6 390.767 377.204 390.319 377.204 C 387.682 377.204 386.541 369.468 388.648 365.897 C 389.465 364.519 390.125 364.108 391.297 364.245 C 392.563 364.388 392.824 364.725 392.669 365.984 C 391.946 371.925 392.793 372.885 396.216 370.005 C 398.454 368.122 400.031 368.359 400.031 370.572 C 400.031 372.722 398.348 374.331 394.495 375.864 Z M 408.321 486.537 C 406.027 487.69 404.637 487.815 404.076 486.911 C 403.26 485.583 403.44 476.532 404.313 475.485 C 405.66 473.858 408.652 474.151 409.487 475.996 C 409.874 476.85 410.715 477.71 411.345 477.91 C 412.193 478.178 412.492 478.876 412.486 480.572 C 412.467 483.227 411.145 485.116 408.321 486.537 Z M 412.841 396.061 C 410.597 397.85 409.387 398.075 407.044 397.134 C 405.766 396.622 405.641 396.155 405.641 391.997 C 405.641 387.278 406.221 385.932 408.259 385.932 C 408.951 385.932 409.381 386.393 409.381 387.129 C 409.381 390.638 411.114 391.243 413.121 388.425 C 414.443 386.574 416.425 385.969 417.18 387.191 C 417.398 387.54 416.993 388.762 416.282 389.915 C 415.571 391.062 414.992 392.527 414.992 393.175 C 414.992 393.817 414.025 395.12 412.841 396.061 Z M 362.005 420.317 C 362.005 424.256 361.4 425.135 359.798 423.527 C 358.895 422.629 358.776 421.545 359.025 416.414 C 359.306 410.517 359.381 410.287 361.594 407.693 C 362.847 406.229 363.875 404.801 363.875 404.521 C 363.875 404.24 364.156 404.009 364.499 404.009 C 364.841 404.009 365.122 404.334 365.122 404.732 C 365.122 405.125 365.82 406.372 366.68 407.494 C 367.541 408.616 368.239 409.688 368.239 409.875 C 368.239 410.062 366.836 411.683 365.122 413.485 C 362.124 416.62 362.005 416.888 362.005 420.317 Z M 268.606 310.722 C 266.997 312.175 265.576 312 264.392 310.199 C 263.513 308.846 263.058 308.69 261.007 309.02 C 259.043 309.332 258.532 309.182 257.965 308.123 C 256.986 306.296 258.021 304.065 260.583 302.481 C 263.943 300.399 266.15 300.711 268.101 303.522 C 270.021 306.29 270.226 309.251 268.606 310.722 Z M 357.261 442.92 C 357.031 443.519 356.145 443.905 354.998 443.905 C 353.135 443.905 353.122 443.874 353.515 441.256 C 354.624 433.887 354.599 433.956 357.311 431.731 C 360.378 429.218 362.254 429.006 364.156 430.97 C 364.904 431.743 366.412 432.853 367.503 433.432 C 368.594 434.018 369.486 434.791 369.486 435.147 C 369.486 435.982 366.568 436.007 366.057 435.178 C 365.845 434.835 364.137 434.554 362.267 434.554 C 359.181 434.554 358.801 434.704 358.252 436.157 C 357.916 437.035 357.642 438.694 357.642 439.841 C 357.642 440.994 357.473 442.378 357.261 442.92 Z M 141.956 550.813 C 141.657 553.219 141.557 553.313 139.151 553.462 C 134.893 553.718 133.222 551.823 135.722 549.566 C 136.408 548.943 136.969 548.07 136.969 547.627 C 136.969 547.179 138.159 546.125 139.618 545.29 C 141.775 544.043 143.009 543.787 146.276 543.887 C 150.496 544.024 151.238 544.567 150.097 546.692 C 149.567 547.684 148.676 547.983 145.846 548.132 L 142.267 548.319 L 141.956 550.813 Z M 309.355 515.773 C 307.386 518.79 305.534 517.618 304.892 512.943 C 304.381 509.215 305.509 508.536 311.238 509.122 C 316.281 509.639 317.465 510.867 316.456 514.527 C 315.913 516.503 315.558 516.839 314.049 516.839 C 312.927 516.839 311.961 516.341 311.375 515.462 L 310.465 514.09 L 309.355 515.773 Z M 145.964 311.763 C 145.085 312.1 144.119 312.374 143.813 312.374 C 142.031 312.374 136.969 304.052 136.969 301.116 C 136.969 300.499 137.542 299.807 138.247 299.583 C 139.244 299.271 140.086 299.819 142.068 302.064 C 145.372 305.822 147.566 309.083 147.566 310.236 C 147.566 310.741 146.849 311.433 145.964 311.763 Z M 174.708 200.404 C 170.325 203.278 163.412 199.345 165.613 195.237 C 166.473 193.628 169.185 193.516 173.324 194.925 C 175.861 195.792 176.241 196.147 176.241 197.662 C 176.241 198.821 175.73 199.737 174.708 200.404 Z M 95.889 511.671 C 93.395 513.348 92.236 513.448 90.353 512.127 C 89.188 511.31 88.969 510.574 88.969 507.433 C 88.969 504.578 89.206 503.618 89.979 503.325 C 91.538 502.726 94.162 503.917 94.997 505.6 C 95.415 506.441 96.356 507.345 97.086 507.613 C 98.925 508.299 98.438 509.957 95.889 511.671 Z M 413.389 375.347 C 409.213 376.936 405.71 375.11 406.545 371.775 C 406.782 370.815 407.125 369.132 407.312 368.035 C 407.966 364.07 410.684 363.914 411.457 367.792 C 411.706 369.032 412.299 369.693 413.402 369.973 C 414.73 370.304 414.992 370.734 414.992 372.554 C 414.992 374.331 414.692 374.854 413.389 375.347 Z M 199.929 351.84 C 202.622 352.8 204.255 351.459 204.953 347.713 C 206.038 341.909 203.289 339.827 199.374 343.48 C 196.519 346.148 196.825 350.73 199.929 351.84 Z M 379.353 445.931 C 379.042 446.529 378.418 447.022 377.957 447.022 C 376.785 447.022 375.507 443.637 375.9 441.592 C 376.131 440.377 375.794 439.379 374.722 438.108 C 373.899 437.129 373.226 436.107 373.226 435.832 C 373.226 434.854 374.828 434.099 377.702 433.725 L 380.625 433.345 L 380.27 439.093 C 380.07 442.253 379.659 445.333 379.353 445.931 Z M 164.447 558.91 C 164.191 561.56 163.811 562.694 163.138 562.825 C 160.987 563.23 159.828 560.07 161.592 558.605 C 162.259 558.056 162.527 556.598 162.527 553.574 C 162.527 549.89 162.714 549.198 163.911 548.357 C 164.671 547.821 165.893 547.384 166.622 547.384 C 168.399 547.384 170.157 549.441 169.901 551.23 C 169.746 552.353 169.247 552.727 167.726 552.876 C 165.376 553.101 164.921 553.942 164.447 558.91 Z M 373.101 355.885 C 371.817 357.169 369.51 356.777 368.9 355.168 C 368.594 354.364 367.335 353.23 366.107 352.65 C 363.551 351.434 363.451 351.116 365.016 349.078 C 365.646 348.261 366.344 347.083 366.574 346.46 C 367.216 344.696 369.772 345.332 369.891 347.283 C 369.941 348.143 370.015 349.209 370.047 349.652 C 370.084 350.1 370.95 350.755 371.979 351.116 C 373.438 351.621 373.849 352.139 373.849 353.454 C 373.849 354.377 373.513 355.474 373.101 355.885 Z M 82.611 519.208 C 81.564 520.255 80.604 520.143 79.401 518.815 C 78.023 517.288 78.098 516.914 79.931 516.216 C 81.695 515.543 81.944 514.252 80.535 513.087 C 79.75 512.432 79.338 512.525 78.16 513.629 C 77.063 514.657 76.577 514.795 75.997 514.215 C 74.781 512.999 75.137 511.584 77.2 509.477 C 80.012 506.603 81.489 506.953 81.981 510.606 C 82.094 511.466 82.455 512.432 82.773 512.756 C 83.615 513.61 83.496 518.323 82.611 519.208 Z M 356.189 331.904 C 356.332 332.054 356.426 332.166 356.538 332.222 C 356.819 332.353 357.255 332.154 359.044 331.343 C 359.219 331.262 359.399 331.181 359.599 331.088 C 361.095 330.408 362.934 329.847 363.682 329.841 C 364.436 329.835 365.82 329.168 366.768 328.357 L 368.476 326.88 L 367.005 326.094 C 365.066 325.06 358.446 325.727 356.912 327.123 C 355.803 328.127 355.354 331.075 356.189 331.904 Z M 57.907 462.824 C 56.38 464.208 55.731 464.127 53.556 462.294 C 50.987 460.138 50.439 457.663 52.209 456.229 C 53.998 454.783 55.395 454.833 57.408 456.416 C 59.397 457.987 59.652 461.241 57.907 462.824 Z M 57.62 485.671 C 56.062 488.769 51.567 487.391 51.567 483.813 C 51.567 481.781 56.423 477.305 57.589 478.271 C 58.642 479.144 58.661 483.607 57.62 485.671 Z M 412.947 442.802 C 410.298 444.865 406.956 443.743 409.007 441.48 C 409.556 440.875 410.005 439.766 410.005 439.018 C 410.005 437.366 413.283 435.184 415.771 435.178 C 417.011 435.178 417.485 435.49 417.485 436.306 C 417.485 437.615 414.948 441.243 412.947 442.802 Z M 273.131 557.022 C 272.109 558.592 270.594 558.898 267.565 558.156 C 264.248 557.34 264.011 555.176 267.234 555.176 C 268.425 555.176 269.491 554.784 269.778 554.241 C 270.052 553.724 270.812 552.184 271.473 550.813 C 272.134 549.441 272.926 548.388 273.237 548.469 C 274.316 548.756 274.241 555.332 273.131 557.022 Z M 423.606 455.556 C 423.426 457.133 423.145 457.326 420.745 457.501 L 418.083 457.694 L 418.476 455.219 L 418.875 452.744 L 416.774 452.844 C 415.097 452.925 414.642 452.688 414.499 451.66 C 414.393 450.955 414.879 449.864 415.577 449.241 C 416.594 448.318 417.017 448.244 417.759 448.861 C 418.27 449.285 418.856 450.164 419.062 450.818 C 419.287 451.535 420.01 452.009 420.876 452.009 C 422.784 452.009 423.856 453.399 423.606 455.556 Z M 33.764 430.677 C 32.698 432.198 30.279 432.516 29.238 431.263 C 28.87 430.82 28.272 429.661 27.898 428.682 C 27.343 427.23 27.418 426.688 28.272 425.74 C 29.456 424.425 32.841 424.182 33.988 425.329 C 35.029 426.37 34.923 429.025 33.764 430.677 Z M 45.545 470.018 C 43.407 470.99 42.572 470.884 41.307 469.488 C 39.05 466.995 42.291 462.581 45.483 463.79 C 48.893 465.087 48.924 468.478 45.545 470.018 Z M 192.199 277.814 C 192.418 278.681 192.916 279.286 193.303 279.167 C 194.512 278.781 198.096 272.852 197.916 271.543 C 197.722 270.11 194.755 269.468 193.421 270.577 C 192.399 271.425 191.676 275.72 192.199 277.814 Z M 321.374 544.872 C 319.547 547.066 318.986 547.366 316.611 547.372 C 314.754 547.378 313.975 547.141 314.118 546.605 C 314.504 545.09 320.775 539.798 321.91 540.016 C 323.768 540.371 323.562 542.235 321.374 544.872 Z M 187.455 563.604 C 186.82 565.138 186.327 565.462 184.625 565.462 C 182.331 565.462 180.605 564.116 180.605 562.32 C 180.605 560.812 182.412 559.852 185.261 559.852 C 187.923 559.852 188.559 560.943 187.455 563.604 Z M 21.028 323.595 C 20.735 323.595 20.056 323.763 19.514 323.975 C 18.797 324.249 18.261 323.732 17.594 322.136 C 16.472 319.443 17.213 316.738 19.083 316.738 C 20.224 316.738 23.516 319.973 23.516 321.107 C 23.516 321.793 21.714 323.595 21.028 323.595 Z M 345.798 487.877 C 345.798 488.476 345.155 488.788 343.927 488.788 C 342.138 488.788 342.057 488.669 342.057 486.107 C 342.057 484.636 342.394 483.09 342.805 482.679 C 343.609 481.874 345.716 481.7 347.306 482.311 C 348.709 482.847 348.534 485.496 347.044 486.294 C 346.359 486.662 345.798 487.373 345.798 487.877 Z M 348.484 477.567 C 348.64 478.789 346.527 479.032 344.563 478.022 C 342.275 476.85 341.521 474.207 342.999 472.574 C 344.738 470.654 346.396 471.24 347.456 474.138 C 347.961 475.51 348.422 477.05 348.484 477.567 Z M 30.641 413.005 C 28.889 414.756 26.632 413.958 26.632 411.596 C 26.639 409.489 28.802 405.879 30.067 405.879 C 31.264 405.879 32.43 408.797 31.962 410.642 C 31.775 411.403 31.177 412.468 30.641 413.005 Z M 331.192 530.821 C 331.878 533.552 331.142 533.944 329.434 531.763 L 327.782 529.656 L 326.311 531.04 C 324.241 532.978 323.356 532.779 323.356 530.366 C 323.356 527.848 324.304 526.813 326.598 526.813 C 328.605 526.813 330.631 528.577 331.192 530.821 Z M 100.695 325.334 C 100.471 326.525 97.16 326.892 93.333 326.157 C 91.132 325.733 90.796 324.835 92.211 323.127 C 93.701 321.338 101.088 323.258 100.695 325.334 Z M 405.591 348.785 C 402.83 351.11 401.277 350.898 401.277 348.199 C 401.277 346.429 403.546 343.543 404.937 343.543 C 407.904 343.543 408.278 346.528 405.591 348.785 Z M 210.389 567.606 C 208.525 568.909 207.696 568.834 206.188 567.214 C 204.268 565.157 204.586 563.904 207.229 563.093 C 209.161 562.501 209.716 562.545 210.657 563.399 C 212.166 564.764 212.06 566.434 210.389 567.606 Z M 51.212 443.294 C 51.118 443.332 51.031 443.369 50.944 443.4 C 50.09 443.73 49.647 443.899 49.317 443.774 C 48.937 443.631 48.693 443.107 48.114 441.991 C 46.169 438.22 48.045 435.82 51.287 437.946 C 53.456 439.367 53.412 442.459 51.212 443.294 Z M 298.839 547.852 C 300.921 549.373 302.785 548.269 302.785 545.514 C 302.785 543.32 301.707 542.397 299.151 542.397 C 297.025 542.397 297.013 542.416 297.393 544.735 C 297.599 546.019 298.253 547.422 298.839 547.852 Z M 229.321 575.367 C 226.51 577.377 225.487 577.047 225.487 574.164 C 225.487 572.02 226.79 570.929 229.034 571.185 C 231.565 571.471 231.715 573.666 229.321 575.367 Z M 101.443 529.294 C 101.057 530.011 100.134 530.553 99.299 530.553 C 97.996 530.553 97.796 530.223 97.597 527.705 C 97.316 524.189 97.846 523.117 99.392 524.064 C 101.194 525.167 102.228 527.823 101.443 529.294 Z M 227.706 547.266 C 227.233 548.756 226.678 548.855 224.085 547.908 C 222.67 547.391 222.37 546.904 222.37 545.153 C 222.37 542.534 223.929 542.273 226.466 544.461 C 227.731 545.545 228.037 546.231 227.706 547.266 Z M 368.233 399.583 C 368.233 400.132 367.41 401.048 366.412 401.616 C 364.817 402.52 364.542 402.532 364.231 401.722 C 363.763 400.5 363.775 396.89 364.255 395.644 C 364.717 394.441 365.745 394.341 365.745 395.5 C 365.745 395.955 366.306 396.841 366.992 397.464 C 367.678 398.087 368.239 399.041 368.233 399.583 Z M 69.065 476.295 C 67.557 477.106 65.917 477.093 64.502 476.27 C 62.863 475.317 63.187 474.07 65.313 473.191 C 68.71 471.782 72.163 474.637 69.065 476.295 Z M 40.852 444.684 C 41.032 446.891 40.945 447.022 39.243 447.022 C 36.937 447.022 36.606 446.654 36.606 444.073 C 36.606 442.06 36.706 441.966 38.632 442.153 C 40.484 442.328 40.677 442.552 40.852 444.684 Z M 115.151 521.384 C 115.151 521.945 114.627 522.686 113.991 523.023 C 112.477 523.833 110.164 521.776 110.164 519.619 C 110.164 518.429 110.488 518.086 111.629 518.086 C 113.275 518.086 115.151 519.844 115.151 521.384 Z M 288.254 542.622 C 287.762 543.912 284.177 543.993 282.488 542.753 C 281.029 541.674 281.703 540.845 284.477 540.328 C 286.814 539.891 288.834 541.113 288.254 542.622 Z M 113.63 488.513 C 112.053 489.685 110.519 489.654 109.497 488.426 C 108.331 487.023 109.541 485.359 111.722 485.359 C 114.116 485.359 115.282 487.285 113.63 488.513 Z M 404.107 441.879 C 404.413 442.876 404.282 443.282 403.659 443.282 C 402.088 443.282 401.277 441.848 401.277 439.055 C 401.277 435.92 402.524 435.664 403.241 438.65 C 403.478 439.654 403.871 441.106 404.107 441.879 Z M 326.049 60.159 C 326.492 61.312 329.602 61.518 330.662 60.458 C 331.759 59.361 330.874 58.039 329.054 58.052 C 326.841 58.064 325.582 58.943 326.049 60.159 Z M 417.279 321.307 C 418.108 322.136 421.225 321.743 421.225 320.815 C 421.225 319.811 419.374 318.608 417.84 318.608 C 416.874 318.608 416.475 320.509 417.279 321.307 Z M 234.09 11.798 C 233.822 13.194 231.509 13.469 230.474 12.222 C 229.782 11.386 229.801 11.069 230.611 10.258 C 231.384 9.485 231.839 9.435 232.93 10.021 C 233.685 10.426 234.202 11.212 234.09 11.798 Z M 402.524 498.188 C 402.524 499.734 401.502 499.728 400.679 498.182 C 399.769 496.486 399.875 495.021 400.897 495.021 C 401.851 495.021 402.524 496.33 402.524 498.188 Z M 54.285 403.074 C 53.911 404.047 52.484 404.72 51.941 404.171 C 51.337 403.567 51.517 401.622 52.216 401.186 C 53.119 400.631 54.678 402.046 54.285 403.074 Z M 107.465 68.899 C 107.259 69.441 106.785 69.883 106.424 69.883 C 105.514 69.883 104.959 68.232 105.445 66.966 C 105.813 66.006 105.931 66.006 106.841 66.916 C 107.39 67.465 107.67 68.356 107.465 68.899 Z M 98.32 46.819 C 99.648 47.642 101.393 45.902 100.315 44.824 C 99.722 44.232 99.324 44.3 98.47 45.154 C 97.522 46.102 97.503 46.314 98.32 46.819 Z M 250.422 574.551 C 250.422 574.968 248.801 574.85 248.352 574.401 C 247.773 573.821 249.144 572.319 250.254 572.319 C 250.84 572.319 251.039 572.681 250.802 573.304 C 250.59 573.846 250.422 574.407 250.422 574.551 Z M 304.967 523.378 C 304.967 524.083 304.474 524.706 303.826 524.837 C 302.941 525.005 302.729 524.725 302.891 523.597 C 303.14 521.826 304.967 521.633 304.967 523.378 Z M 376.187 405.724 C 376.336 406.179 375.912 406.503 375.146 406.503 C 374.379 406.503 373.849 406.098 373.849 405.524 C 373.849 404.377 375.794 404.545 376.187 405.724 Z M 446.771 287.595 C 446.771 288.025 446.49 288.792 446.16 289.309 C 445.686 290.039 445.555 289.864 445.549 288.53 C 445.543 287.589 445.817 286.816 446.16 286.816 C 446.503 286.816 446.777 287.165 446.771 287.595 Z M 373.226 371.332 C 373.226 371.875 373.556 372.211 373.968 372.074 C 375.121 371.688 375.314 370.347 374.211 370.347 C 373.668 370.347 373.226 370.79 373.226 371.332 Z M 375.601 508.686 C 375.725 509.06 375.358 509.359 374.784 509.359 C 374.211 509.359 373.843 509.06 373.968 508.686 C 374.092 508.318 374.46 508.019 374.784 508.019 C 375.108 508.019 375.476 508.318 375.601 508.686 Z M 394.42 480.06 C 394.42 480.403 394.159 480.684 393.834 480.684 C 393.51 480.684 393.074 480.403 392.862 480.06 C 392.65 479.718 392.912 479.437 393.448 479.437 C 393.984 479.437 394.42 479.718 394.42 480.06 Z M 149.436 247.544 C 149.436 247.887 149.717 248.167 150.06 248.167 C 150.402 248.167 150.683 247.887 150.683 247.544 C 150.683 247.201 150.402 246.92 150.06 246.92 C 149.717 246.92 149.436 247.201 149.436 247.544 Z" fill="rgb(0,0,0)" style=""></path>
  </g>
</svg>